<?xml version="1.0"?>
<svg xmlns="http://www.w3.org/2000/svg" xmlns:xlink="http://www.w3.org/1999/xlink" xmlns:svgjs="http://svgjs.com/svgjs" version="1.1" width="512" height="512" x="0" y="0" viewBox="0 0 512 512" style="enable-background:new 0 0 512 512" xml:space="preserve" class=""><g><g xmlns="http://www.w3.org/2000/svg" id="_Path_" fill="#f3ce7d" data-name=" Path "><path d="m68 319h376v34h-376z" fill="#034353" data-original="#f3ce7d" style="" class=""/><path d="m68 61h376v34h-376z" fill="#034353" data-original="#f3ce7d" style="" class=""/></g><path xmlns="http://www.w3.org/2000/svg" d="m278.21 61.4v.05h-44.42v-.05-42.47h44.42z" fill="#e1b7a3" data-original="#e1b7a3" style="" class=""/><path xmlns="http://www.w3.org/2000/svg" d="m344.79 353h-37.34l59.88 140h37.34z" fill="#e1b7a3" data-original="#e1b7a3" style="" class=""/><path xmlns="http://www.w3.org/2000/svg" d="m167.21 353-59.88 140h37.34l59.88-140z" fill="#e1b7a3" data-original="#e1b7a3" style="" class=""/><path xmlns="http://www.w3.org/2000/svg" d="m347.75 447.37-.65.28h-182.2l-.65-.28 11.1-25.88.55.24h160.2l.55-.24z" fill="#c79a83" data-original="#c79a83" style=""/><path xmlns="http://www.w3.org/2000/svg" d="m430.7 95.66v223.79h-349.4v-224.1h349.4z" fill="#2193b0" data-original="#d4e1f4" style="" class=""/><path xmlns="http://www.w3.org/2000/svg" d="m212.91 186.73h24v71.34h-24z" fill="#eb7288" data-original="#eb7288" style="" class=""/><path xmlns="http://www.w3.org/2000/svg" d="m166.91 156.73h24v101.34h-24z" fill="#eb7288" data-original="#eb7288" style="" class=""/><path xmlns="http://www.w3.org/2000/svg" d="m120.91 206.73h24v51.34h-24z" fill="#eb7288" data-original="#eb7288" style="" class=""/><path xmlns="http://www.w3.org/2000/svg" d="m68 319h30v34h-30z" fill="#ddbd8a" data-original="#ddbd8a" style="" class=""/><path xmlns="http://www.w3.org/2000/svg" d="m68 61h30v34h-30z" fill="#ddbd8a" data-original="#ddbd8a" style="" class=""/><path xmlns="http://www.w3.org/2000/svg" d="m111.3 95.35h-30v.31 223.79h30v-223.79z" fill="#bccee2" data-original="#bccee2" style="" class=""/><g xmlns="http://www.w3.org/2000/svg" fill="#284268"><path d="m270 252h122v12h-122z" fill="#284268" data-original="#284268" style="" class=""/><path d="m270 212h122v12h-122z" fill="#284268" data-original="#284268" style="" class=""/><path d="m270 172h50v12h-50z" fill="#284268" data-original="#284268" style="" class=""/><path d="m151 207a6 6 0 0 0 -6-6h-24a6 6 0 0 0 -6 6v51a6 6 0 0 0 6 6h24a6 6 0 0 0 6-6zm-24 6h12v39h-12z" fill="#284268" data-original="#284268" style="" class=""/><path d="m197 157a6 6 0 0 0 -6-6h-24a6 6 0 0 0 -6 6v101a6 6 0 0 0 6 6h24a6 6 0 0 0 6-6zm-12 95h-12v-89h12z" fill="#284268" data-original="#284268" style="" class=""/><path d="m243 187a6 6 0 0 0 -6-6h-24a6 6 0 0 0 -6 6v71a6 6 0 0 0 6 6h24a6 6 0 0 0 6-6zm-24 6h12v59h-12z" fill="#284268" data-original="#284268" style="" class=""/><path d="m103 118h15v12h-15z" fill="#284268" data-original="#284268" style="" class=""/><path d="m130 118h95v12h-95z" fill="#284268" data-original="#284268" style="" class=""/><path d="m68.155 313a6.533 6.533 0 0 0 -6.155 6.449v33.9c0 3.313 2.841 5.652 6.155 5.652h89.959l-56.295 131.527a6.084 6.084 0 0 0 5.514 8.472h37.334a5.813 5.813 0 0 0 5.514-3.427l17.907-41.573h175.824l17.907 41.573a5.813 5.813 0 0 0 5.514 3.427h37.334a5.97 5.97 0 0 0 5.009-2.665 6.313 6.313 0 0 0 .5-5.823l-56.29-131.512h89.959c3.314 0 6.155-2.339 6.155-5.652v-33.9a6.533 6.533 0 0 0 -6.155-6.448h-6.845v-212h6.845c3.314 0 6.155-2.339 6.155-5.652v-33.9a6.533 6.533 0 0 0 -6.155-6.448h-159.845v-36.065a5.768 5.768 0 0 0 -5.788-5.935h-44.424a5.768 5.768 0 0 0 -5.788 5.935v36.065h-159.845a6.533 6.533 0 0 0 -6.155 6.449v33.9c0 3.312 2.841 5.651 6.155 5.651h6.845v212zm72.555 174h-24.277l54.735-128h24.279zm67.79-128h95l24.164 57h-143.327zm-35.27 83 5.963-14h153.613l5.963 14zm222.336 45h-24.276l-54.737-128h24.279zm-155.566-462h32v30h-32zm-166 64v-22h364v22zm351 12v212h-338v-212zm13 224v22h-364v-22z" fill="#284268" data-original="#284268" style="" class=""/></g></g></svg>
